<?xml version="1.0" encoding="utf-8"?>
<!-- Generator: Adobe Illustrator 26.0.1, SVG Export Plug-In . SVG Version: 6.00 Build 0)  -->
<svg version="1.1" id="Calque_1" xmlns="http://www.w3.org/2000/svg" xmlns:xlink="http://www.w3.org/1999/xlink" x="0px" y="0px"
	 viewBox="0 0 268.7 304.2" style="enable-background:new 0 0 268.7 304.2;" xml:space="preserve">
<style type="text/css">
	.st0{fill:#B1B1B1;}
	.st1{fill:url(#SVGID_1_);}
	.st2{fill:url(#SVGID_00000104688993567781506910000016649638738865741731_);}
	
		.st3{opacity:0.53;fill:none;stroke:url(#SVGID_00000065764995394399963180000014710990335076995736_);stroke-width:2;stroke-miterlimit:10;}
	.st4{fill:none;}
	.st5{font-family:'HelveticaNeue-Thin';}
	.st6{font-size:9.106px;}
	
		.st7{opacity:0.53;fill:none;stroke:url(#SVGID_00000088826590484142229700000009987535949815266477_);stroke-width:2;stroke-miterlimit:10;}
	.st8{font-size:6.6626px;}
	
		.st9{opacity:0.53;fill:none;stroke:url(#SVGID_00000042006756537830975150000014854761901702876855_);stroke-width:2;stroke-miterlimit:10;}
	.st10{font-size:15.3101px;}
	
		.st11{opacity:0.53;fill:none;stroke:url(#SVGID_00000150801966255361784370000010808135807807074744_);stroke-width:2;stroke-miterlimit:10;}
	.st12{font-size:12.0077px;}
	.st13{opacity:0.53;fill:url(#SVGID_00000062904747052449165650000007346409281643666816_);}
	.st14{opacity:0.53;fill:url(#SVGID_00000024724692513618863840000011822750598113688997_);}
	.st15{opacity:0.53;fill:url(#SVGID_00000006669721971977817220000003642490830642387593_);}
	.st16{opacity:0.35;fill:url(#SVGID_00000132071171285086751580000012383458785333572492_);}
	.st17{opacity:0.53;fill:url(#SVGID_00000142143697563810268900000001304391389182669467_);}
	.st18{opacity:0.53;fill:url(#SVGID_00000074411407130936511800000010010231200581495967_);}
	.st19{opacity:0.53;fill:url(#SVGID_00000024696312759352631180000016920885182492997531_);}
	.st20{opacity:0.53;fill:url(#SVGID_00000057862461861699833220000010885684752633139110_);}
	.st21{opacity:0.53;fill:url(#SVGID_00000179608795428332376840000003461667248631403410_);}
	.st22{opacity:0.53;fill:url(#SVGID_00000129887544990029603630000000748705727282253745_);}
	.st23{opacity:0.53;fill:url(#SVGID_00000026152719651317280430000015912897962346315416_);}
	.st24{opacity:0.53;fill:url(#SVGID_00000014624530350701588690000003666970105083035020_);}
	.st25{opacity:0.53;fill:url(#SVGID_00000068676040882944675590000014572327660165166255_);}
	.st26{opacity:0.7;fill:url(#SVGID_00000029748527204398342990000016847323497625397945_);}
	.st27{opacity:0.7;fill:url(#SVGID_00000137100050052155152760000001224802877457702301_);}
	.st28{opacity:0.7;fill:url(#SVGID_00000156550918632853422030000007322537312527584694_);}
	.st29{opacity:0.7;fill:url(#SVGID_00000137847229169363329130000006533981335352471969_);}
	.st30{opacity:0.33;fill:url(#SVGID_00000106133637831430070830000014551843124770209441_);}
	.st31{opacity:0.7;fill:url(#SVGID_00000107571282165421888160000006432841369120667069_);}
	.st32{opacity:0.7;fill:url(#SVGID_00000179606635218899957850000006991681518669067672_);}
	.st33{opacity:0.7;fill:url(#SVGID_00000084524346992022080830000009933260811245273532_);}
	.st34{opacity:0.7;fill:url(#SVGID_00000150090167184193196580000006922824730579655103_);}
	.st35{opacity:0.7;fill:url(#SVGID_00000116214585182745001920000004031482783199088791_);}
	.st36{opacity:0.7;fill:url(#SVGID_00000158002042305209447380000005915257014230513589_);}
	.st37{opacity:0.7;fill:url(#SVGID_00000031894434113324459910000015705563958692293276_);}
	.st38{opacity:0.7;fill:url(#SVGID_00000008125467690049988290000016546767381606857892_);}
	.st39{opacity:0.7;fill:url(#SVGID_00000144318063748759941640000002578266760046126002_);}
	.st40{opacity:0.7;fill:url(#SVGID_00000179642034502271481330000001590070162971148209_);}
	.st41{opacity:0.7;fill:url(#SVGID_00000123409445465113946840000015016592574656619393_);}
	.st42{opacity:0.7;fill:url(#SVGID_00000174589711518254289070000008654969228692385153_);}
	.st43{opacity:0.7;fill:url(#SVGID_00000176726364104455016430000009218703278842981513_);}
	.st44{opacity:0.7;fill:url(#SVGID_00000080922270214477436820000006477523303597476738_);}
	.st45{opacity:0.7;fill:url(#SVGID_00000173857518678330935780000008316513835455377300_);}
	.st46{opacity:0.7;fill:url(#SVGID_00000149368363926260361260000013205273073854967688_);}
	.st47{opacity:0.7;fill:url(#SVGID_00000178883756696625255060000011543903513563472523_);}
	.st48{opacity:0.7;fill:url(#SVGID_00000039817044636515400250000000652692295343018673_);}
	.st49{opacity:0.7;fill:url(#SVGID_00000104707286394720087420000005886780456102939525_);}
	.st50{opacity:0.7;fill:url(#SVGID_00000039125583378934389090000009337924583673649592_);}
	.st51{opacity:0.7;fill:url(#SVGID_00000008828311982454961400000015789928443705552789_);}
	.st52{opacity:0.7;fill:url(#SVGID_00000021097031120680428740000006580199671133039503_);}
	.st53{opacity:0.7;fill:url(#SVGID_00000006671279130472403930000006715142480856689336_);}
	.st54{opacity:0.7;fill:url(#SVGID_00000088827360745762582310000015402203000267445669_);}
	.st55{opacity:0.53;fill:url(#SVGID_00000140716718899382546760000005211109601871824545_);}
	.st56{opacity:0.53;fill:url(#SVGID_00000164494578142565341010000012147651094662189743_);}
	.st57{opacity:0.53;fill:url(#SVGID_00000145030470821929528550000001031944132287012538_);}
	.st58{opacity:0.26;fill:url(#SVGID_00000011013602824888795100000007518420236795835571_);}
</style>
<g>
	<g>
		<g>
			<g>
				<g>
					<path class="st0" d="M253,163c1.3-3.7,2.2-7.9,3-12.4c0.7-4.5,1.3-9.2,1.7-14.1c0.8-11.9-1.2-23.6-6-34
						c-2.3-5.2-5.4-10.1-8.9-14.6c-3.6-4.5-7.6-8.5-12-12.2c-8.8-7.3-19-13-29.7-17.4c-5.4-2.2-10.8-4.1-16.4-5.7
						c-2.8-0.8-5.6-1.5-8.4-2.3c-2.8-0.7-5.6-1.2-8.4-1.8c-1.4-0.3-2.8-0.5-4.2-0.7l-4.2-0.6c-0.7-0.1-1.4-0.2-2.1-0.3l-2.1-0.1
						l-4.2-0.3c-1.4-0.2-2.8-0.1-4.2-0.1l-4.2,0c-1.4,0.1-2.8,0.2-4.2,0.3l-2.1,0.2c-0.3,0-0.7,0.1-1,0.1l-1,0.2l-4.1,0.7l-1,0.2
						c-0.3,0.1-0.7,0.2-1,0.3l-2,0.5l-2,0.5c-0.3,0.1-0.7,0.2-1,0.3l-1,0.4l-3.9,1.5c-5,2.2-9.8,5-14,8.5
						c-8.5,7.1-14.9,16.7-19.3,27.5c-2.2,5.4-3.9,11-5.2,16.7c-0.7,2.9-1.1,5.8-1.6,8.7c-0.2,1.5-0.4,2.9-0.5,4.4
						c-0.1,0.7-0.1,1.5-0.2,2.2l-0.1,1.7c0,0.1-0.1,0.3,0,0.4l0.2,0.4l0.3,0.7c0.1,0.3,0.3,0.6,0.4,0.9c0.2,0.6,0.5,1.3,0.7,1.9
						c0.4,1.3,0.7,2.6,0.9,4c0.2,1.4,0.3,2.8,0.2,4.3c-0.1,0.7-0.1,1.5-0.3,2.2l-0.3,1.2c-0.1,0.4-0.3,0.9-0.5,1.2
						c-1.3,2.7-3.1,4.8-5,6.7c-2,1.9-4.1,3.5-6.4,4.8c-2.8,1.6-5.7,2.9-8.6,3.9c-0.7,0.2-1.5,0.5-2.2,0.7l-0.9,0.3
						c-0.2,0-0.4,0.2-0.6,0.3c-0.8,0.5-1.4,1.2-1.7,2.1c-0.6,1.6,0.1,3.9,1.5,6c0.3,0.5,0.7,1,1.1,1.5l0.6,0.8l0.7,0.7
						c0.4,0.5,0.9,0.9,1.3,1.4c0.5,0.5,1.2,1.1,1.8,1.7l1.3,1.4c0.5,0.4,0.8,1,1,1.5c0.5,1.2,0.4,2.5,0,3.7
						c-0.1,0.3-0.2,0.6-0.4,0.9l-0.2,0.4c-0.1,0.1-0.2,0.2-0.3,0.3c-0.4,0.4-0.8,0.9-1.3,1.3c-0.5,0.4-1.1,0.8-1.5,1.3
						c-0.2,0.2-0.5,0.5-0.7,0.7c-0.4,0.5-0.8,1.2-0.8,1.9c0,0.7,0.2,1.4,0.5,2c0.1,0.2,0.1,0.3,0.2,0.5c0.1,0.2,0.2,0.3,0.3,0.5
						c0.2,0.3,0.4,0.6,0.7,0.9c0.5,0.6,1.1,1,1.7,1.4l0,3.1c0,0-0.1,0-0.1,0.1c-0.1,0-0.1,0.1-0.2,0.2c-0.1,0.1-0.3,0.3-0.4,0.4
						c-0.3,0.3-0.5,0.6-0.6,1c-0.3,0.7-0.5,1.5-0.5,2.4l-0.2-0.8c1.1,2,2.2,3.9,3.3,5.9c0.4,0.6,0.5,1.3,0.6,1.9
						c0.1,0.7,0.1,1.4,0.1,2c-0.1,1.3-0.5,2.7-1.3,3.8l-0.1,0.1l-0.1,0.1c-0.5,0.6-1.1,1.4-1.5,2.2c-0.4,0.8-0.7,1.6-0.9,2.5
						c-0.2,0.8-0.2,1.8-0.1,2.6c0,0.4,0.2,0.9,0.3,1.3c0.1,0.4,0.3,0.8,0.5,1.3c1.5,3.4,4.7,5.8,8.3,7.1c0.5,0.2,0.9,0.4,1.4,0.5
						l1.4,0.4l1.4,0.4c0.5,0.1,1,0.2,1.5,0.2c1,0.1,2,0.3,2.9,0.4l3,0.2c0.5,0,1,0.1,1.5,0.1l1.5,0l3-0.1c2-0.1,4-0.4,6-0.6
						c1-0.1,2-0.3,3-0.5l3-0.6c2.1-0.4,4.2-0.8,6.3-1.2l0.9-0.2l0.4-0.1l0.2,0c0.1,0,0.2-0.1,0.2,0l1.3,1.3c0.8,0.8,1.7,1.8,2.3,2.5
						c1.4,1.5,2.8,3.1,4.1,4.8c2.6,3.3,5.1,6.7,7.3,10.3c2.2,3.6,4.1,7.5,5.5,11.6c-1.3-4.1-3.2-7.9-5.4-11.5
						c-2.2-3.6-4.7-7.1-7.3-10.4c-1.3-1.7-2.7-3.3-4.2-4.8c-0.7-0.7-1.6-1.7-2.4-2.5l-0.6-0.6l-0.3-0.3l-0.2-0.2c-0.1,0-0.1,0-0.2,0
						l-1.8,0.4l-6.4,1.4l-3.1,0.7l-1.5,0.4c-0.5,0.1-1,0.2-1.5,0.2c-4.1,0.6-8.2,1.1-12.2,1.1c-4.1,0.1-8.1-0.5-11.9-1.9
						c-0.5-0.2-1-0.3-1.4-0.5l-1.3-0.7l-0.7-0.4c-0.2-0.1-0.4-0.3-0.6-0.4l-1.2-0.9c-1.5-1.3-2.9-2.9-3.7-4.8
						c-0.4-0.9-0.7-1.9-0.9-3c-0.2-1.1-0.1-2.1,0-3.2c0.2-1,0.5-2.1,1-3c0.5-1,1-1.8,1.8-2.7l-0.1,0.1c0.5-0.8,0.8-1.7,0.8-2.7
						c0-0.5,0-0.9-0.1-1.4c-0.1-0.5-0.2-0.9-0.5-1.3c-1.1-1.8-2.2-3.6-3.4-5.5l-0.1-0.2l0-0.3c-0.2-2.5,0.7-5.2,3.2-6.9l0,2.4
						c-1.9-1-3.6-2.7-4.5-4.8c-0.5-1.1-0.8-2.3-0.9-3.5c0-1.2,0.5-2.4,1.1-3.4c0.4-0.5,0.7-1,1.2-1.5c0.3-0.3,0.5-0.5,0.8-0.8
						c0.3-0.2,0.5-0.5,0.8-0.7c0.1-0.1,0.1-0.1,0.2-0.2l0.1-0.2c0.1-0.2,0.1-0.3,0.2-0.5c0.2-0.6,0.3-1.4-0.1-2
						c-0.2-0.3-0.4-0.6-0.7-0.8l-0.8-0.7c-0.3-0.2-0.6-0.5-0.9-0.7c-0.1-0.1-0.1-0.1-0.2-0.2l-0.3-0.3l-0.6-0.6
						c-0.4-0.4-0.8-0.8-1.2-1.2c-0.4-0.4-0.8-0.9-1.2-1.4c-1.5-1.8-3-3.9-3.7-6.7c0-0.2-0.1-0.3-0.1-0.5l-0.1-0.6l-0.1-1.2
						c0-0.4,0.1-0.8,0.1-1.2c0-0.4,0.1-0.8,0.2-1.2c0.4-1.6,1.3-3,2.4-4.2c0.6-0.6,1.2-1.1,2-1.5c0.4-0.2,0.7-0.3,1.2-0.5l0.9-0.3
						l1.6-0.6c0.5-0.2,1-0.4,1.5-0.7c0.5-0.2,1-0.4,1.5-0.7l1.5-0.8c1-0.5,1.9-1.1,2.9-1.7c1.8-1.2,3.5-2.6,5-4.1
						c1.5-1.5,2.7-3.3,3.5-5c0.2-0.5,0.2-0.5,0.3-0.9c0.1-0.4,0.1-0.9,0.1-1.3c0-0.9,0-1.9-0.2-2.9c-0.2-1-0.5-2-0.8-3
						c-0.2-0.5-0.4-1-0.6-1.5c-0.1-0.2-0.2-0.5-0.3-0.7l-0.2-0.4l-0.3-0.7c-0.1-0.4-0.3-0.9-0.4-1.3c-0.1-0.4-0.2-0.9-0.3-1.3l0-1.1
						l0-0.9c0-0.5,0-1,0-1.4c0-1,0.1-1.9,0.1-2.9c0.1-1.9,0.3-3.8,0.5-5.7c0.5-3.8,1.1-7.6,1.9-11.3c1.7-7.5,4.2-14.8,7.6-21.5
						c1.2-2.6,2.7-5,4.2-7.4c1.6-2.3,3.1-4.6,4.8-6.7c1.6-2.2,3.5-4,5.2-6c0.9-0.9,1.9-1.8,2.8-2.6c0.5-0.4,0.9-0.9,1.4-1.3
						c0.5-0.4,1-0.8,1.5-1.2c7.8-6.2,16.4-10,24.3-12.2c1-0.3,2-0.6,2.9-0.8c1-0.2,1.9-0.4,2.9-0.6c1.9-0.3,3.7-0.8,5.6-0.9
						c1.8-0.2,3.6-0.4,5.3-0.5c0.9-0.1,1.7-0.1,2.5-0.1c0.8,0,1.6,0,2.4,0c1.6,0,3.1-0.1,4.6,0c1.5,0.1,2.9,0.2,4.3,0.2
						c1.4,0.1,2.7,0.1,4,0.2c1.2,0.2,2.4,0.3,3.6,0.4c2.3,0.3,4.4,0.5,6.2,0.8c1.8,0.3,3.4,0.6,4.8,0.9c2.8,0.5,4.7,0.8,5.7,1
						c1,0.2,1.1,0.2,0.4,0c-0.8-0.3-2.5-0.6-5.1-1.1c3.6,0.6,6.8,1.4,10,2.1c1.6,0.3,3.1,0.6,4.7,0.9c1.5,0.4,3,0.7,4.6,1.1
						c6.1,1.5,12.1,3.1,18.9,6c6.7,3,13.1,6.5,18.9,10.6c5.8,4.1,11.2,8.8,15.8,13.9c9.3,10.3,15.9,22.7,19,35.7
						c0.3,0.9,0.7,2.2,1.1,3.8c0.4,1.6,0.8,3.4,1.1,5.3c0.3,1.9,0.5,3.8,0.7,5.4c0.1,1.7,0.2,3.1,0.1,4.1c-0.1,8.7-1.6,17-4,24.9
						c-2.5,7.9-5.9,15.5-10.3,22.6c-4.4,7.2-9.7,14-16,20.4c-6.3,6.4-13.8,12.3-22.5,17.3c3-2,5.8-4.3,5.8-4.3c-1.6,1-3,1.7-4.3,2.5
						c-1.3,0.7-2.5,1.3-3.8,1.9c-2.5,1.2-5,2.3-8.4,3.5c4.8-2.5,9.7-5.5,14.5-9.2c2.4-1.8,4.7-3.8,7-6c2.3-2.1,4.5-4.4,6.6-6.8
						C242.5,185.8,249.2,174.3,253,163z"/>
				</g>
			</g>
		</g>
	</g>
</g>
<linearGradient id="SVGID_1_" gradientUnits="userSpaceOnUse" x1="130.5428" y1="148.6909" x2="249.9257" y2="148.6909">
	<stop  offset="0" style="stop-color:#422918"/>
	<stop  offset="1" style="stop-color:#B17F49"/>
</linearGradient>
<path class="st1" d="M193,221.8c0,0,10.9-14.6,11.2-32.5l1.7-8.3v-15.4c0,0-6.5-25.2-11.7-31.2l-6.8-5.4c0,0-3.7,0.2-3.4-8.3l0-4.8
	l-4.3-0.9l-5.5,3.2l-6.8,0.2l-9.9-7.4l-16.7,6l-3.7,4.2l-6.6,5.7v-1.4c0,0,5.5-4.5,6.5-6.3s4.5-3.8,4.5-3.8l8.3-3.2l9.1-3.7l3.4,1.4
	l7.2,3.1l5.1-1.8c0,0,10.3-4.5,14-8h7.1c0,0,2.6-2.3,0.8-4.2c-1.8-1.8-1.8-1.8-1.8-1.8l-2.8-0.6V83.6h1.4l0.5,9.7l3.5,3.8h4.2l6-5.8
	l9.1-10l1.8-5.7h3.8l-0.8,5.1l-1.1,4l-0.3,4.6c0,0-2.6,3.2-6.2,3.7l-4.3-0.6l-6,5.7v8.2l-2.2,0.2c0,0-3.8,3.1-3.8,9.2l0.6,1.4
	l0.2,3.7c0,0,11.2,12.8,14,20.8l4,0.3l5.8-5.1l-1.7-14.2l1.7-4.9l6.6-2.6l3.1-3.2v-5.7c0,0,3.1-0.3,5.1-3.8V81.9l1.4-0.2V99v2.6
	c0,0-1.3,4-4,4.7l-1.4,6.1l-3.1,5.3l-4.4,1l-2.8,1.8l2,6.9l2.7,7.3l-0.1,3.1l-9.7,10.8l-0.3,7.9l-2.8,5.9l0.1,5.4l1.8,3.5l0.3,8.4
	l-1.4,9.7l0.7,3.6l3.7-0.9l13.6-13.2l1.2-5.2l0.1-9l6.3-11.8l1.5-8.7l7.6-8l-4.6,7.6l-2.4,8.2l7-5.1v1.2l-7.3,7.1l-3.9,4.6l-1.4,4
	l-0.1,10.8l-2.3,9.2l-8,6.6l-0.2,2.1l-6.7,1.6c0,0-4.8,3.3-6.9,9.6l-1,9.5L193,221.8z"/>
<linearGradient id="SVGID_00000061451664270633783890000001214851082356785571_" gradientUnits="userSpaceOnUse" x1="83.7742" y1="84.0012" x2="185.5036" y2="84.0012">
	<stop  offset="0" style="stop-color:#B17F49"/>
	<stop  offset="0.9988" style="stop-color:#422918"/>
</linearGradient>
<path style="fill:url(#SVGID_00000061451664270633783890000001214851082356785571_);" d="M83.8,94.9l1.5-7.5l4.8-8.3l3.5-5.4
	c0,0,8.3-3.8,11.1-5.5c2.8-1.7,6-5.4,6-5.4l7.7-1.4l6.9-5.1h6.8l7.5,1.2l4,5.2l5.4,10.6l5.1,1.1l3.5,3.8l1.4,2.9l8.6,3.4l5.4,3.1
	l1.2,7.2c0,0,1.1,4,4.9,5.2l6.3,5.8l-11,5.7l-2.3-9.4l-1.5-7.2l-2.6-2.5l-5.8-0.2l-10.2-1.1l-3.4-0.6l-1.1-5.7l-6.5,0.2l-2.9,1.4
	h-5.1l-5.4,4.2l-0.8-0.7l4.2-3.5l2.2-0.6l4.2-0.8l4.5-1.4l4.7-0.2l1.5,0.5l1.1,1.8l0.8,3.1l13.9,0.6l-0.2-1.8l-3.8-2.3l-3.5-1.5
	l-3.5-5.7l-2.8-2.6l-3.2-0.5l-4.8-10.2l-3-4.5l-4.2-2.5l-8.5-0.6l-4.2,2.7l-3.2,2.2l-7.3,1.2l-4.9,3.7L97,72.9l-2.8,1l-3.7,5.1
	l-4.8,8.4L83.8,94.9z"/>
<linearGradient id="SVGID_00000141435850549197849680000013916251572161153695_" gradientUnits="userSpaceOnUse" x1="-0.9766" y1="177.3125" x2="13.2726" y2="177.3125">
	<stop  offset="0" style="stop-color:#2DAB66"/>
	<stop  offset="0.262" style="stop-color:#338D74"/>
	<stop  offset="0.7576" style="stop-color:#3D588C"/>
	<stop  offset="1" style="stop-color:#414495"/>
</linearGradient>
<circle style="opacity:0.53;fill:none;stroke:url(#SVGID_00000141435850549197849680000013916251572161153695_);stroke-width:2;stroke-miterlimit:10;" cx="6.1" cy="177.3" r="6.1"/>
<rect x="3.5" y="174.4" class="st4" width="23" height="11.3"/>
<text transform="matrix(1 0 0 1 3.4555 180.8873)" class="st5 st6">A</text>
<linearGradient id="SVGID_00000049941751802007807950000002471105608405176212_" gradientUnits="userSpaceOnUse" x1="3.2946" y1="160.8306" x2="14.257" y2="160.8306">
	<stop  offset="0" style="stop-color:#386FB4"/>
	<stop  offset="0.3523" style="stop-color:#396CB2"/>
	<stop  offset="0.6174" style="stop-color:#3B62AB"/>
	<stop  offset="0.8534" style="stop-color:#3E529F"/>
	<stop  offset="1" style="stop-color:#414495"/>
</linearGradient>
<circle style="opacity:0.53;fill:none;stroke:url(#SVGID_00000049941751802007807950000002471105608405176212_);stroke-width:2;stroke-miterlimit:10;" cx="8.8" cy="160.8" r="4.5"/>
<rect x="6.8" y="158.7" class="st4" width="16.9" height="8.3"/>
<text transform="matrix(1 0 0 1 6.8056 163.4459)" class="st5 st8">B</text>
<linearGradient id="SVGID_00000025417487213575683070000007644150812950677146_" gradientUnits="userSpaceOnUse" x1="30.8062" y1="192.4802" x2="53.401" y2="192.4802">
	<stop  offset="0" style="stop-color:#2DAB66"/>
	<stop  offset="0.262" style="stop-color:#338D74"/>
	<stop  offset="0.7576" style="stop-color:#3D588C"/>
	<stop  offset="1" style="stop-color:#414495"/>
</linearGradient>
<circle style="opacity:0.53;fill:none;stroke:url(#SVGID_00000025417487213575683070000007644150812950677146_);stroke-width:2;stroke-miterlimit:10;" cx="42.1" cy="192.5" r="10.3"/>
<rect x="39.7" y="186.6" class="st4" width="38.7" height="19"/>
<text transform="matrix(1 0 0 1 39.7309 197.5182)" class="st5 st10">t</text>
<linearGradient id="SVGID_00000038408575042971661680000001725497499756492222_" gradientUnits="userSpaceOnUse" x1="19.2323" y1="171.1519" x2="37.3848" y2="171.1519">
	<stop  offset="0" style="stop-color:#2DAB66"/>
	<stop  offset="0.262" style="stop-color:#338D74"/>
	<stop  offset="0.7576" style="stop-color:#3D588C"/>
	<stop  offset="1" style="stop-color:#414495"/>
</linearGradient>
<circle style="opacity:0.53;fill:none;stroke:url(#SVGID_00000038408575042971661680000001725497499756492222_);stroke-width:2;stroke-miterlimit:10;" cx="28.3" cy="171.2" r="8.1"/>
<rect x="24.8" y="165.9" class="st4" width="30.4" height="14.9"/>
<text transform="matrix(1 0 0 1 24.7578 174.4781)" class="st5 st12">a</text>
<radialGradient id="SVGID_00000170985245015869238280000000622653816039184312_" cx="113.6057" cy="95.203" r="11.2018" fx="124.6621" fy="97.0016" gradientUnits="userSpaceOnUse">
	<stop  offset="0" style="stop-color:#2DAB66"/>
	<stop  offset="0.25" style="stop-color:#2EA867"/>
	<stop  offset="0.4383" style="stop-color:#2F9E6C"/>
	<stop  offset="0.6063" style="stop-color:#338E73"/>
	<stop  offset="0.7626" style="stop-color:#37777E"/>
	<stop  offset="0.9093" style="stop-color:#3D5A8B"/>
	<stop  offset="1" style="stop-color:#414495"/>
</radialGradient>
<circle style="opacity:0.53;fill:url(#SVGID_00000170985245015869238280000000622653816039184312_);" cx="113.6" cy="95.2" r="11.2"/>
<radialGradient id="SVGID_00000041975816169081260760000000793698678598733218_" cx="130.5428" cy="97.4475" r="6.7231" fx="137.1787" fy="98.527" gradientUnits="userSpaceOnUse">
	<stop  offset="0" style="stop-color:#2DAB66"/>
	<stop  offset="0.25" style="stop-color:#2EA867"/>
	<stop  offset="0.4383" style="stop-color:#2F9E6C"/>
	<stop  offset="0.6063" style="stop-color:#338E73"/>
	<stop  offset="0.7626" style="stop-color:#37777E"/>
	<stop  offset="0.9093" style="stop-color:#3D5A8B"/>
	<stop  offset="1" style="stop-color:#414495"/>
</radialGradient>
<circle style="opacity:0.53;fill:url(#SVGID_00000041975816169081260760000000793698678598733218_);" cx="130.5" cy="97.4" r="6.7"/>
<radialGradient id="SVGID_00000178920909883892613720000008503063333852251306_" cx="100.4321" cy="109.0722" r="6.7231" fx="107.068" fy="110.1517" gradientUnits="userSpaceOnUse">
	<stop  offset="0" style="stop-color:#2DAB66"/>
	<stop  offset="0.25" style="stop-color:#2EA867"/>
	<stop  offset="0.4383" style="stop-color:#2F9E6C"/>
	<stop  offset="0.6063" style="stop-color:#338E73"/>
	<stop  offset="0.7626" style="stop-color:#37777E"/>
	<stop  offset="0.9093" style="stop-color:#3D5A8B"/>
	<stop  offset="1" style="stop-color:#414495"/>
</radialGradient>
<circle style="opacity:0.53;fill:url(#SVGID_00000178920909883892613720000008503063333852251306_);" cx="100.4" cy="109.1" r="6.7"/>
<radialGradient id="SVGID_00000137822698701222516190000004680570170039362955_" cx="167.8506" cy="73.5048" r="15.8349" fx="183.4801" fy="76.0474" gradientUnits="userSpaceOnUse">
	<stop  offset="0" style="stop-color:#2DAB66"/>
	<stop  offset="0.25" style="stop-color:#2EA867"/>
	<stop  offset="0.4383" style="stop-color:#2F9E6C"/>
	<stop  offset="0.6063" style="stop-color:#338E73"/>
	<stop  offset="0.7626" style="stop-color:#37777E"/>
	<stop  offset="0.9093" style="stop-color:#3D5A8B"/>
	<stop  offset="1" style="stop-color:#414495"/>
</radialGradient>
<circle style="opacity:0.35;fill:url(#SVGID_00000137822698701222516190000004680570170039362955_);" cx="167.9" cy="73.5" r="15.8"/>
<radialGradient id="SVGID_00000044139684620738205820000007712979718374256565_" cx="133.0621" cy="53.1457" r="9.625" fx="142.5623" fy="54.6912" gradientUnits="userSpaceOnUse">
	<stop  offset="0" style="stop-color:#2DAB66"/>
	<stop  offset="0.25" style="stop-color:#2EA867"/>
	<stop  offset="0.4383" style="stop-color:#2F9E6C"/>
	<stop  offset="0.6063" style="stop-color:#338E73"/>
	<stop  offset="0.7626" style="stop-color:#37777E"/>
	<stop  offset="0.9093" style="stop-color:#3D5A8B"/>
	<stop  offset="1" style="stop-color:#414495"/>
</radialGradient>
<circle style="opacity:0.53;fill:url(#SVGID_00000044139684620738205820000007712979718374256565_);" cx="133.1" cy="53.1" r="9.6"/>
<radialGradient id="SVGID_00000080886152684830108150000017454833638509058189_" cx="91.0804" cy="105.2373" r="9.3516" fx="100.3107" fy="106.7388" gradientUnits="userSpaceOnUse">
	<stop  offset="0" style="stop-color:#2DAB66"/>
	<stop  offset="0.25" style="stop-color:#2EA867"/>
	<stop  offset="0.4383" style="stop-color:#2F9E6C"/>
	<stop  offset="0.6063" style="stop-color:#338E73"/>
	<stop  offset="0.7626" style="stop-color:#37777E"/>
	<stop  offset="0.9093" style="stop-color:#3D5A8B"/>
	<stop  offset="1" style="stop-color:#414495"/>
</radialGradient>
<circle style="opacity:0.53;fill:url(#SVGID_00000080886152684830108150000017454833638509058189_);" cx="91.1" cy="105.2" r="9.4"/>
<radialGradient id="SVGID_00000179632470480401911250000004149833472390182804_" cx="228.9246" cy="145.5835" r="4.6758" fx="233.5397" fy="146.3342" gradientUnits="userSpaceOnUse">
	<stop  offset="0" style="stop-color:#2DAB66"/>
	<stop  offset="0.25" style="stop-color:#2EA867"/>
	<stop  offset="0.4383" style="stop-color:#2F9E6C"/>
	<stop  offset="0.6063" style="stop-color:#338E73"/>
	<stop  offset="0.7626" style="stop-color:#37777E"/>
	<stop  offset="0.9093" style="stop-color:#3D5A8B"/>
	<stop  offset="1" style="stop-color:#414495"/>
</radialGradient>
<circle style="opacity:0.53;fill:url(#SVGID_00000179632470480401911250000004149833472390182804_);" cx="228.9" cy="145.6" r="4.7"/>
<radialGradient id="SVGID_00000026869906537693828790000018322005157644486543_" cx="227.452" cy="156.4911" r="6.0175" fx="233.3914" fy="157.4573" gradientUnits="userSpaceOnUse">
	<stop  offset="0" style="stop-color:#2DAB66"/>
	<stop  offset="0.25" style="stop-color:#2EA867"/>
	<stop  offset="0.4383" style="stop-color:#2F9E6C"/>
	<stop  offset="0.6063" style="stop-color:#338E73"/>
	<stop  offset="0.7626" style="stop-color:#37777E"/>
	<stop  offset="0.9093" style="stop-color:#3D5A8B"/>
	<stop  offset="1" style="stop-color:#414495"/>
</radialGradient>
<circle style="opacity:0.53;fill:url(#SVGID_00000026869906537693828790000018322005157644486543_);" cx="227.5" cy="156.5" r="6"/>
<radialGradient id="SVGID_00000003824660586043167800000013828939962349436832_" cx="250.0784" cy="158.1413" r="6.326" fx="256.3224" fy="159.157" gradientUnits="userSpaceOnUse">
	<stop  offset="0" style="stop-color:#2DAB66"/>
	<stop  offset="0.25" style="stop-color:#2EA867"/>
	<stop  offset="0.4383" style="stop-color:#2F9E6C"/>
	<stop  offset="0.6063" style="stop-color:#338E73"/>
	<stop  offset="0.7626" style="stop-color:#37777E"/>
	<stop  offset="0.9093" style="stop-color:#3D5A8B"/>
	<stop  offset="1" style="stop-color:#414495"/>
</radialGradient>
<circle style="opacity:0.53;fill:url(#SVGID_00000003824660586043167800000013828939962349436832_);" cx="250.1" cy="158.1" r="6.3"/>
<radialGradient id="SVGID_00000156579592005202607140000015193433998097583295_" cx="154.4483" cy="126.4621" r="5.0027" fx="159.3861" fy="127.2654" gradientUnits="userSpaceOnUse">
	<stop  offset="0" style="stop-color:#2DAB66"/>
	<stop  offset="0.25" style="stop-color:#2EA867"/>
	<stop  offset="0.4383" style="stop-color:#2F9E6C"/>
	<stop  offset="0.6063" style="stop-color:#338E73"/>
	<stop  offset="0.7626" style="stop-color:#37777E"/>
	<stop  offset="0.9093" style="stop-color:#3D5A8B"/>
	<stop  offset="1" style="stop-color:#414495"/>
</radialGradient>
<circle style="opacity:0.53;fill:url(#SVGID_00000156579592005202607140000015193433998097583295_);" cx="154.4" cy="126.5" r="5"/>
<radialGradient id="SVGID_00000004548284087640477230000004563705153935474067_" cx="238.0803" cy="144.1475" r="6.326" fx="244.3242" fy="145.1633" gradientUnits="userSpaceOnUse">
	<stop  offset="0" style="stop-color:#2DAB66"/>
	<stop  offset="0.25" style="stop-color:#2EA867"/>
	<stop  offset="0.4383" style="stop-color:#2F9E6C"/>
	<stop  offset="0.6063" style="stop-color:#338E73"/>
	<stop  offset="0.7626" style="stop-color:#37777E"/>
	<stop  offset="0.9093" style="stop-color:#3D5A8B"/>
	<stop  offset="1" style="stop-color:#414495"/>
</radialGradient>
<circle style="opacity:0.53;fill:url(#SVGID_00000004548284087640477230000004563705153935474067_);" cx="238.1" cy="144.1" r="6.3"/>
<radialGradient id="SVGID_00000032623937098659260760000011850622367266314397_" cx="214.0624" cy="103.0402" r="10.1863" fx="224.1166" fy="104.6758" gradientUnits="userSpaceOnUse">
	<stop  offset="0" style="stop-color:#2DAB66"/>
	<stop  offset="0.25" style="stop-color:#2EA867"/>
	<stop  offset="0.4383" style="stop-color:#2F9E6C"/>
	<stop  offset="0.6063" style="stop-color:#338E73"/>
	<stop  offset="0.7626" style="stop-color:#37777E"/>
	<stop  offset="0.9093" style="stop-color:#3D5A8B"/>
	<stop  offset="1" style="stop-color:#414495"/>
</radialGradient>
<circle style="opacity:0.53;fill:url(#SVGID_00000032623937098659260760000011850622367266314397_);" cx="214.1" cy="103" r="10.2"/>
<radialGradient id="SVGID_00000040560798008239831650000000273940256264119965_" cx="231.6208" cy="87.2612" r="10.1863" fx="241.6749" fy="88.8968" gradientUnits="userSpaceOnUse">
	<stop  offset="0" style="stop-color:#2DAB66"/>
	<stop  offset="0.25" style="stop-color:#2EA867"/>
	<stop  offset="0.4383" style="stop-color:#2F9E6C"/>
	<stop  offset="0.6063" style="stop-color:#338E73"/>
	<stop  offset="0.7626" style="stop-color:#37777E"/>
	<stop  offset="0.9093" style="stop-color:#3D5A8B"/>
	<stop  offset="1" style="stop-color:#414495"/>
</radialGradient>
<circle style="opacity:0.53;fill:url(#SVGID_00000040560798008239831650000000273940256264119965_);" cx="231.6" cy="87.3" r="10.2"/>
<radialGradient id="SVGID_00000127026251672917778700000016213734106091707037_" cx="157.5812" cy="143.309" r="3.6794" fx="160.8101" fy="145.0732" gradientUnits="userSpaceOnUse">
	<stop  offset="0" style="stop-color:#69B32D"/>
	<stop  offset="0.2069" style="stop-color:#68B130"/>
	<stop  offset="0.3768" style="stop-color:#64AC3A"/>
	<stop  offset="0.5337" style="stop-color:#5EA44C"/>
	<stop  offset="0.6826" style="stop-color:#559764"/>
	<stop  offset="0.8261" style="stop-color:#4A8883"/>
	<stop  offset="0.9636" style="stop-color:#3C75A9"/>
	<stop  offset="1" style="stop-color:#386FB4"/>
</radialGradient>
<circle style="opacity:0.7;fill:url(#SVGID_00000127026251672917778700000016213734106091707037_);" cx="157.6" cy="143.3" r="3.7"/>
<radialGradient id="SVGID_00000005951370197132044170000015571647858658455213_" cx="193.2921" cy="144.116" r="3.2084" fx="196.1076" fy="145.6543" gradientUnits="userSpaceOnUse">
	<stop  offset="0" style="stop-color:#69B32D"/>
	<stop  offset="0.2069" style="stop-color:#68B130"/>
	<stop  offset="0.3768" style="stop-color:#64AC3A"/>
	<stop  offset="0.5337" style="stop-color:#5EA44C"/>
	<stop  offset="0.6826" style="stop-color:#559764"/>
	<stop  offset="0.8261" style="stop-color:#4A8883"/>
	<stop  offset="0.9636" style="stop-color:#3C75A9"/>
	<stop  offset="1" style="stop-color:#386FB4"/>
</radialGradient>
<circle style="opacity:0.7;fill:url(#SVGID_00000005951370197132044170000015571647858658455213_);" cx="193.3" cy="144.1" r="3.2"/>
<radialGradient id="SVGID_00000003827915194507485750000002462816596137631142_" cx="140.7225" cy="156.0613" r="5.589" fx="145.6272" fy="158.741" gradientUnits="userSpaceOnUse">
	<stop  offset="0" style="stop-color:#69B32D"/>
	<stop  offset="0.2069" style="stop-color:#68B130"/>
	<stop  offset="0.3768" style="stop-color:#64AC3A"/>
	<stop  offset="0.5337" style="stop-color:#5EA44C"/>
	<stop  offset="0.6826" style="stop-color:#559764"/>
	<stop  offset="0.8261" style="stop-color:#4A8883"/>
	<stop  offset="0.9636" style="stop-color:#3C75A9"/>
	<stop  offset="1" style="stop-color:#386FB4"/>
</radialGradient>
<circle style="opacity:0.7;fill:url(#SVGID_00000003827915194507485750000002462816596137631142_);" cx="140.7" cy="156.1" r="5.6"/>
<radialGradient id="SVGID_00000024703682146592874450000004605372189237771399_" cx="249.4641" cy="115.3399" r="10.2552" fx="258.4637" fy="120.2569" gradientUnits="userSpaceOnUse">
	<stop  offset="0" style="stop-color:#69B32D"/>
	<stop  offset="0.2069" style="stop-color:#68B130"/>
	<stop  offset="0.3768" style="stop-color:#64AC3A"/>
	<stop  offset="0.5337" style="stop-color:#5EA44C"/>
	<stop  offset="0.6826" style="stop-color:#559764"/>
	<stop  offset="0.8261" style="stop-color:#4A8883"/>
	<stop  offset="0.9636" style="stop-color:#3C75A9"/>
	<stop  offset="1" style="stop-color:#386FB4"/>
</radialGradient>
<circle style="opacity:0.7;fill:url(#SVGID_00000024703682146592874450000004605372189237771399_);" cx="249.5" cy="115.3" r="10.3"/>
<radialGradient id="SVGID_00000178907436159245787450000014379267750753451905_" cx="180.1498" cy="105.0848" r="10.2552" fx="189.1493" fy="110.0017" gradientUnits="userSpaceOnUse">
	<stop  offset="0" style="stop-color:#69B32D"/>
	<stop  offset="0.2069" style="stop-color:#68B130"/>
	<stop  offset="0.3768" style="stop-color:#64AC3A"/>
	<stop  offset="0.5337" style="stop-color:#5EA44C"/>
	<stop  offset="0.6826" style="stop-color:#559764"/>
	<stop  offset="0.8261" style="stop-color:#4A8883"/>
	<stop  offset="0.9636" style="stop-color:#3C75A9"/>
	<stop  offset="1" style="stop-color:#386FB4"/>
</radialGradient>
<circle style="opacity:0.33;fill:url(#SVGID_00000178907436159245787450000014379267750753451905_);" cx="180.1" cy="105.1" r="10.3"/>
<radialGradient id="SVGID_00000163789853264128467070000015051325709012039860_" cx="123.384" cy="111.6931" r="6.0972" fx="128.7346" fy="114.6165" gradientUnits="userSpaceOnUse">
	<stop  offset="0" style="stop-color:#69B32D"/>
	<stop  offset="0.2069" style="stop-color:#68B130"/>
	<stop  offset="0.3768" style="stop-color:#64AC3A"/>
	<stop  offset="0.5337" style="stop-color:#5EA44C"/>
	<stop  offset="0.6826" style="stop-color:#559764"/>
	<stop  offset="0.8261" style="stop-color:#4A8883"/>
	<stop  offset="0.9636" style="stop-color:#3C75A9"/>
	<stop  offset="1" style="stop-color:#386FB4"/>
</radialGradient>
<circle style="opacity:0.7;fill:url(#SVGID_00000163789853264128467070000015051325709012039860_);" cx="123.4" cy="111.7" r="6.1"/>
<radialGradient id="SVGID_00000167367513004878213350000016490378070520951218_" cx="227.452" cy="181.3825" r="8.7533" fx="235.1336" fy="185.5794" gradientUnits="userSpaceOnUse">
	<stop  offset="0" style="stop-color:#69B32D"/>
	<stop  offset="0.2069" style="stop-color:#68B130"/>
	<stop  offset="0.3768" style="stop-color:#64AC3A"/>
	<stop  offset="0.5337" style="stop-color:#5EA44C"/>
	<stop  offset="0.6826" style="stop-color:#559764"/>
	<stop  offset="0.8261" style="stop-color:#4A8883"/>
	<stop  offset="0.9636" style="stop-color:#3C75A9"/>
	<stop  offset="1" style="stop-color:#386FB4"/>
</radialGradient>
<circle style="opacity:0.7;fill:url(#SVGID_00000167367513004878213350000016490378070520951218_);" cx="227.5" cy="181.4" r="8.8"/>
<radialGradient id="SVGID_00000134243625021580437880000002854897792227377815_" cx="185.4862" cy="67.6899" r="5.8149" fx="190.5892" fy="70.4779" gradientUnits="userSpaceOnUse">
	<stop  offset="0" style="stop-color:#69B32D"/>
	<stop  offset="0.2069" style="stop-color:#68B130"/>
	<stop  offset="0.3768" style="stop-color:#64AC3A"/>
	<stop  offset="0.5337" style="stop-color:#5EA44C"/>
	<stop  offset="0.6826" style="stop-color:#559764"/>
	<stop  offset="0.8261" style="stop-color:#4A8883"/>
	<stop  offset="0.9636" style="stop-color:#3C75A9"/>
	<stop  offset="1" style="stop-color:#386FB4"/>
</radialGradient>
<circle style="opacity:0.7;fill:url(#SVGID_00000134243625021580437880000002854897792227377815_);" cx="185.5" cy="67.7" r="5.8"/>
<radialGradient id="SVGID_00000155146393660816011410000010973856168753753762_" cx="170.9232" cy="109.7299" r="6.4874" fx="176.6163" fy="112.8404" gradientUnits="userSpaceOnUse">
	<stop  offset="0" style="stop-color:#69B32D"/>
	<stop  offset="0.2069" style="stop-color:#68B130"/>
	<stop  offset="0.3768" style="stop-color:#64AC3A"/>
	<stop  offset="0.5337" style="stop-color:#5EA44C"/>
	<stop  offset="0.6826" style="stop-color:#559764"/>
	<stop  offset="0.8261" style="stop-color:#4A8883"/>
	<stop  offset="0.9636" style="stop-color:#3C75A9"/>
	<stop  offset="1" style="stop-color:#386FB4"/>
</radialGradient>
<circle style="opacity:0.7;fill:url(#SVGID_00000155146393660816011410000010973856168753753762_);" cx="170.9" cy="109.7" r="6.5"/>
<radialGradient id="SVGID_00000126288167942083498070000000310233750648626844_" cx="157.5812" cy="114.2982" r="10.1834" fx="166.5178" fy="119.1807" gradientUnits="userSpaceOnUse">
	<stop  offset="0" style="stop-color:#69B32D"/>
	<stop  offset="0.2069" style="stop-color:#68B130"/>
	<stop  offset="0.3768" style="stop-color:#64AC3A"/>
	<stop  offset="0.5337" style="stop-color:#5EA44C"/>
	<stop  offset="0.6826" style="stop-color:#559764"/>
	<stop  offset="0.8261" style="stop-color:#4A8883"/>
	<stop  offset="0.9636" style="stop-color:#3C75A9"/>
	<stop  offset="1" style="stop-color:#386FB4"/>
</radialGradient>
<circle style="opacity:0.7;fill:url(#SVGID_00000126288167942083498070000000310233750648626844_);" cx="157.6" cy="114.3" r="10.2"/>
<radialGradient id="SVGID_00000003784493782517311730000012516954971139909769_" cx="145.6126" cy="136.5393" r="4.3684" fx="149.4462" fy="138.6337" gradientUnits="userSpaceOnUse">
	<stop  offset="0" style="stop-color:#69B32D"/>
	<stop  offset="0.2069" style="stop-color:#68B130"/>
	<stop  offset="0.3768" style="stop-color:#64AC3A"/>
	<stop  offset="0.5337" style="stop-color:#5EA44C"/>
	<stop  offset="0.6826" style="stop-color:#559764"/>
	<stop  offset="0.8261" style="stop-color:#4A8883"/>
	<stop  offset="0.9636" style="stop-color:#3C75A9"/>
	<stop  offset="1" style="stop-color:#386FB4"/>
</radialGradient>
<circle style="opacity:0.7;fill:url(#SVGID_00000003784493782517311730000012516954971139909769_);" cx="145.6" cy="136.5" r="4.4"/>
<radialGradient id="SVGID_00000055690636357264127040000001205503762601023619_" cx="133.0915" cy="130.8976" r="5.1434" fx="137.6052" fy="133.3637" gradientUnits="userSpaceOnUse">
	<stop  offset="0" style="stop-color:#69B32D"/>
	<stop  offset="0.2069" style="stop-color:#68B130"/>
	<stop  offset="0.3768" style="stop-color:#64AC3A"/>
	<stop  offset="0.5337" style="stop-color:#5EA44C"/>
	<stop  offset="0.6826" style="stop-color:#559764"/>
	<stop  offset="0.8261" style="stop-color:#4A8883"/>
	<stop  offset="0.9636" style="stop-color:#3C75A9"/>
	<stop  offset="1" style="stop-color:#386FB4"/>
</radialGradient>
<circle style="opacity:0.7;fill:url(#SVGID_00000055690636357264127040000001205503762601023619_);" cx="133.1" cy="130.9" r="5.1"/>
<radialGradient id="SVGID_00000126293819578608024460000015592196394520835714_" cx="135.9026" cy="117.4628" r="5.1434" fx="140.4163" fy="119.9288" gradientUnits="userSpaceOnUse">
	<stop  offset="0" style="stop-color:#69B32D"/>
	<stop  offset="0.2069" style="stop-color:#68B130"/>
	<stop  offset="0.3768" style="stop-color:#64AC3A"/>
	<stop  offset="0.5337" style="stop-color:#5EA44C"/>
	<stop  offset="0.6826" style="stop-color:#559764"/>
	<stop  offset="0.8261" style="stop-color:#4A8883"/>
	<stop  offset="0.9636" style="stop-color:#3C75A9"/>
	<stop  offset="1" style="stop-color:#386FB4"/>
</radialGradient>
<circle style="opacity:0.7;fill:url(#SVGID_00000126293819578608024460000015592196394520835714_);" cx="135.9" cy="117.5" r="5.1"/>
<radialGradient id="SVGID_00000169557200607701237120000003844739862097513630_" cx="138.5334" cy="112.3257" r="6.3889" fx="144.1401" fy="115.3889" gradientUnits="userSpaceOnUse">
	<stop  offset="0" style="stop-color:#69B32D"/>
	<stop  offset="0.2069" style="stop-color:#68B130"/>
	<stop  offset="0.3768" style="stop-color:#64AC3A"/>
	<stop  offset="0.5337" style="stop-color:#5EA44C"/>
	<stop  offset="0.6826" style="stop-color:#559764"/>
	<stop  offset="0.8261" style="stop-color:#4A8883"/>
	<stop  offset="0.9636" style="stop-color:#3C75A9"/>
	<stop  offset="1" style="stop-color:#386FB4"/>
</radialGradient>
<circle style="opacity:0.7;fill:url(#SVGID_00000169557200607701237120000003844739862097513630_);" cx="138.5" cy="112.3" r="6.4"/>
<radialGradient id="SVGID_00000029745514983789461140000017168724451653248932_" cx="105.9119" cy="81.7085" r="7.6312" fx="112.6087" fy="85.3674" gradientUnits="userSpaceOnUse">
	<stop  offset="0" style="stop-color:#69B32D"/>
	<stop  offset="0.2069" style="stop-color:#68B130"/>
	<stop  offset="0.3768" style="stop-color:#64AC3A"/>
	<stop  offset="0.5337" style="stop-color:#5EA44C"/>
	<stop  offset="0.6826" style="stop-color:#559764"/>
	<stop  offset="0.8261" style="stop-color:#4A8883"/>
	<stop  offset="0.9636" style="stop-color:#3C75A9"/>
	<stop  offset="1" style="stop-color:#386FB4"/>
</radialGradient>
<circle style="opacity:0.7;fill:url(#SVGID_00000029745514983789461140000017168724451653248932_);" cx="105.9" cy="81.7" r="7.6"/>
<radialGradient id="SVGID_00000083810932237724514040000007580952419936498074_" cx="198.9292" cy="88.7671" r="15.2623" fx="212.3229" fy="96.0848" gradientUnits="userSpaceOnUse">
	<stop  offset="0" style="stop-color:#69B32D"/>
	<stop  offset="0.2069" style="stop-color:#68B130"/>
	<stop  offset="0.3768" style="stop-color:#64AC3A"/>
	<stop  offset="0.5337" style="stop-color:#5EA44C"/>
	<stop  offset="0.6826" style="stop-color:#559764"/>
	<stop  offset="0.8261" style="stop-color:#4A8883"/>
	<stop  offset="0.9636" style="stop-color:#3C75A9"/>
	<stop  offset="1" style="stop-color:#386FB4"/>
</radialGradient>
<circle style="opacity:0.7;fill:url(#SVGID_00000083810932237724514040000007580952419936498074_);" cx="198.9" cy="88.8" r="15.3"/>
<radialGradient id="SVGID_00000137850478679759987920000001045591914212598942_" cx="220.9782" cy="125.0742" r="10.776" fx="230.4348" fy="130.2409" gradientUnits="userSpaceOnUse">
	<stop  offset="0" style="stop-color:#69B32D"/>
	<stop  offset="0.2069" style="stop-color:#68B130"/>
	<stop  offset="0.3768" style="stop-color:#64AC3A"/>
	<stop  offset="0.5337" style="stop-color:#5EA44C"/>
	<stop  offset="0.6826" style="stop-color:#559764"/>
	<stop  offset="0.8261" style="stop-color:#4A8883"/>
	<stop  offset="0.9636" style="stop-color:#3C75A9"/>
	<stop  offset="1" style="stop-color:#386FB4"/>
</radialGradient>
<circle style="opacity:0.7;fill:url(#SVGID_00000137850478679759987920000001045591914212598942_);" cx="221" cy="125.1" r="10.8"/>
<radialGradient id="SVGID_00000090277842590692496430000012179416006355773358_" cx="232.3926" cy="121.5058" r="14.3444" fx="244.9808" fy="128.3834" gradientUnits="userSpaceOnUse">
	<stop  offset="0" style="stop-color:#69B32D"/>
	<stop  offset="0.2069" style="stop-color:#68B130"/>
	<stop  offset="0.3768" style="stop-color:#64AC3A"/>
	<stop  offset="0.5337" style="stop-color:#5EA44C"/>
	<stop  offset="0.6826" style="stop-color:#559764"/>
	<stop  offset="0.8261" style="stop-color:#4A8883"/>
	<stop  offset="0.9636" style="stop-color:#3C75A9"/>
	<stop  offset="1" style="stop-color:#386FB4"/>
</radialGradient>
<circle style="opacity:0.7;fill:url(#SVGID_00000090277842590692496430000012179416006355773358_);" cx="232.4" cy="121.5" r="14.3"/>
<radialGradient id="SVGID_00000096048819584996254780000003852604167816490629_" cx="202.7901" cy="125.5951" r="10.2552" fx="211.7896" fy="130.5121" gradientUnits="userSpaceOnUse">
	<stop  offset="0" style="stop-color:#69B32D"/>
	<stop  offset="0.2069" style="stop-color:#68B130"/>
	<stop  offset="0.3768" style="stop-color:#64AC3A"/>
	<stop  offset="0.5337" style="stop-color:#5EA44C"/>
	<stop  offset="0.6826" style="stop-color:#559764"/>
	<stop  offset="0.8261" style="stop-color:#4A8883"/>
	<stop  offset="0.9636" style="stop-color:#3C75A9"/>
	<stop  offset="1" style="stop-color:#386FB4"/>
</radialGradient>
<circle style="opacity:0.7;fill:url(#SVGID_00000096048819584996254780000003852604167816490629_);" cx="202.8" cy="125.6" r="10.3"/>
<radialGradient id="SVGID_00000152957672639478601450000001218379772757748143_" cx="173.2546" cy="134.4909" r="6.4167" fx="178.8857" fy="137.5675" gradientUnits="userSpaceOnUse">
	<stop  offset="0" style="stop-color:#69B32D"/>
	<stop  offset="0.2069" style="stop-color:#68B130"/>
	<stop  offset="0.3768" style="stop-color:#64AC3A"/>
	<stop  offset="0.5337" style="stop-color:#5EA44C"/>
	<stop  offset="0.6826" style="stop-color:#559764"/>
	<stop  offset="0.8261" style="stop-color:#4A8883"/>
	<stop  offset="0.9636" style="stop-color:#3C75A9"/>
	<stop  offset="1" style="stop-color:#386FB4"/>
</radialGradient>
<circle style="opacity:0.7;fill:url(#SVGID_00000152957672639478601450000001218379772757748143_);" cx="173.3" cy="134.5" r="6.4"/>
<radialGradient id="SVGID_00000091001123184068075950000007543286340290883262_" cx="193.2921" cy="56.3093" r="4.8126" fx="197.5154" fy="58.6167" gradientUnits="userSpaceOnUse">
	<stop  offset="0" style="stop-color:#69B32D"/>
	<stop  offset="0.2069" style="stop-color:#68B130"/>
	<stop  offset="0.3768" style="stop-color:#64AC3A"/>
	<stop  offset="0.5337" style="stop-color:#5EA44C"/>
	<stop  offset="0.6826" style="stop-color:#559764"/>
	<stop  offset="0.8261" style="stop-color:#4A8883"/>
	<stop  offset="0.9636" style="stop-color:#3C75A9"/>
	<stop  offset="1" style="stop-color:#386FB4"/>
</radialGradient>
<circle style="opacity:0.7;fill:url(#SVGID_00000091001123184068075950000007543286340290883262_);" cx="193.3" cy="56.3" r="4.8"/>
<radialGradient id="SVGID_00000178207340857302047660000012370137634322110391_" cx="129.7496" cy="66.8172" r="4.9422" fx="134.0867" fy="69.1868" gradientUnits="userSpaceOnUse">
	<stop  offset="0" style="stop-color:#69B32D"/>
	<stop  offset="0.2069" style="stop-color:#68B130"/>
	<stop  offset="0.3768" style="stop-color:#64AC3A"/>
	<stop  offset="0.5337" style="stop-color:#5EA44C"/>
	<stop  offset="0.6826" style="stop-color:#559764"/>
	<stop  offset="0.8261" style="stop-color:#4A8883"/>
	<stop  offset="0.9636" style="stop-color:#3C75A9"/>
	<stop  offset="1" style="stop-color:#386FB4"/>
</radialGradient>
<circle style="opacity:0.7;fill:url(#SVGID_00000178207340857302047660000012370137634322110391_);" cx="129.7" cy="66.8" r="4.9"/>
<radialGradient id="SVGID_00000009586662277200063110000011508409913309507246_" cx="120.9919" cy="79.4306" r="3.8156" fx="124.3403" fy="81.26" gradientUnits="userSpaceOnUse">
	<stop  offset="0" style="stop-color:#69B32D"/>
	<stop  offset="0.2069" style="stop-color:#68B130"/>
	<stop  offset="0.3768" style="stop-color:#64AC3A"/>
	<stop  offset="0.5337" style="stop-color:#5EA44C"/>
	<stop  offset="0.6826" style="stop-color:#559764"/>
	<stop  offset="0.8261" style="stop-color:#4A8883"/>
	<stop  offset="0.9636" style="stop-color:#3C75A9"/>
	<stop  offset="1" style="stop-color:#386FB4"/>
</radialGradient>
<circle style="opacity:0.7;fill:url(#SVGID_00000009586662277200063110000011508409913309507246_);" cx="121" cy="79.4" r="3.8"/>
<radialGradient id="SVGID_00000013884586092721117490000007979044491380886964_" cx="42.9289" cy="29.5401" r="2.6194" fx="45.2276" fy="30.796" gradientTransform="matrix(0.8023 -0.5969 0.5969 0.8023 61.5306 116.5112)" gradientUnits="userSpaceOnUse">
	<stop  offset="0" style="stop-color:#386FB4"/>
	<stop  offset="0.3523" style="stop-color:#396CB2"/>
	<stop  offset="0.6174" style="stop-color:#3B62AB"/>
	<stop  offset="0.8534" style="stop-color:#3E529F"/>
	<stop  offset="1" style="stop-color:#414495"/>
</radialGradient>
<circle style="opacity:0.7;fill:url(#SVGID_00000013884586092721117490000007979044491380886964_);" cx="113.6" cy="114.6" r="2.6"/>
<radialGradient id="SVGID_00000023977675987722965470000004052191749320557704_" cx="38.7068" cy="41.1976" r="2.6194" fx="41.0055" fy="42.4535" gradientTransform="matrix(0.8023 -0.5969 0.5969 0.8023 61.5306 116.5112)" gradientUnits="userSpaceOnUse">
	<stop  offset="0" style="stop-color:#386FB4"/>
	<stop  offset="0.3523" style="stop-color:#396CB2"/>
	<stop  offset="0.6174" style="stop-color:#3B62AB"/>
	<stop  offset="0.8534" style="stop-color:#3E529F"/>
	<stop  offset="1" style="stop-color:#414495"/>
</radialGradient>
<circle style="opacity:0.7;fill:url(#SVGID_00000023977675987722965470000004052191749320557704_);" cx="117.2" cy="126.5" r="2.6"/>
<radialGradient id="SVGID_00000025411643199684751590000005899044395176153472_" cx="369.567" cy="-83.0096" r="2.6194" fx="371.8657" fy="-81.7537" gradientTransform="matrix(-0.9639 0.2661 -0.2661 -0.9639 561.6051 -79.4772)" gradientUnits="userSpaceOnUse">
	<stop  offset="0" style="stop-color:#69B32D"/>
	<stop  offset="0.2069" style="stop-color:#68B130"/>
	<stop  offset="0.3768" style="stop-color:#64AC3A"/>
	<stop  offset="0.5337" style="stop-color:#5EA44C"/>
	<stop  offset="0.6826" style="stop-color:#559764"/>
	<stop  offset="0.8261" style="stop-color:#4A8883"/>
	<stop  offset="0.9636" style="stop-color:#3C75A9"/>
	<stop  offset="1" style="stop-color:#386FB4"/>
</radialGradient>
<circle style="opacity:0.7;fill:url(#SVGID_00000025411643199684751590000005899044395176153472_);" cx="227.5" cy="98.9" r="2.6"/>
<radialGradient id="SVGID_00000040539323225563393510000007807708653288875455_" cx="401.7112" cy="-25.9787" r="2.6194" fx="404.0099" fy="-24.7228" gradientTransform="matrix(-0.9639 0.2661 -0.2661 -0.9639 561.6051 -79.4772)" gradientUnits="userSpaceOnUse">
	<stop  offset="0" style="stop-color:#386FB4"/>
	<stop  offset="0.3523" style="stop-color:#396CB2"/>
	<stop  offset="0.6174" style="stop-color:#3B62AB"/>
	<stop  offset="0.8534" style="stop-color:#3E529F"/>
	<stop  offset="1" style="stop-color:#414495"/>
</radialGradient>
<circle style="opacity:0.7;fill:url(#SVGID_00000040539323225563393510000007807708653288875455_);" cx="181.3" cy="52.5" r="2.6"/>
<radialGradient id="SVGID_00000053506532070642272330000009870464697634178453_" cx="445.8673" cy="-66.2602" r="2.6194" fx="448.166" fy="-65.0043" gradientTransform="matrix(-0.9639 0.2661 -0.2661 -0.9639 561.6051 -79.4772)" gradientUnits="userSpaceOnUse">
	<stop  offset="0" style="stop-color:#386FB4"/>
	<stop  offset="0.3523" style="stop-color:#396CB2"/>
	<stop  offset="0.6174" style="stop-color:#3B62AB"/>
	<stop  offset="0.8534" style="stop-color:#3E529F"/>
	<stop  offset="1" style="stop-color:#414495"/>
</radialGradient>
<circle style="opacity:0.7;fill:url(#SVGID_00000053506532070642272330000009870464697634178453_);" cx="149.4" cy="103" r="2.6"/>
<radialGradient id="SVGID_00000047028049478694836870000014013736068432683675_" cx="423.8551" cy="-98.4821" r="2.6194" fx="426.1538" fy="-97.2262" gradientTransform="matrix(-0.9639 0.2661 -0.2661 -0.9639 561.6051 -79.4772)" gradientUnits="userSpaceOnUse">
	<stop  offset="0" style="stop-color:#69B32D"/>
	<stop  offset="0.2069" style="stop-color:#68B130"/>
	<stop  offset="0.3768" style="stop-color:#64AC3A"/>
	<stop  offset="0.5337" style="stop-color:#5EA44C"/>
	<stop  offset="0.6826" style="stop-color:#559764"/>
	<stop  offset="0.8261" style="stop-color:#4A8883"/>
	<stop  offset="0.9636" style="stop-color:#3C75A9"/>
	<stop  offset="1" style="stop-color:#386FB4"/>
</radialGradient>
<circle style="opacity:0.7;fill:url(#SVGID_00000047028049478694836870000014013736068432683675_);" cx="179.2" cy="128.2" r="2.6"/>
<radialGradient id="SVGID_00000036217030301284288960000014580373124646824098_" cx="155.8047" cy="53.4653" r="8.4097" fx="164.1053" fy="54.8156" gradientUnits="userSpaceOnUse">
	<stop  offset="0" style="stop-color:#2DAB66"/>
	<stop  offset="0.25" style="stop-color:#2EA867"/>
	<stop  offset="0.4383" style="stop-color:#2F9E6C"/>
	<stop  offset="0.6063" style="stop-color:#338E73"/>
	<stop  offset="0.7626" style="stop-color:#37777E"/>
	<stop  offset="0.9093" style="stop-color:#3D5A8B"/>
	<stop  offset="1" style="stop-color:#414495"/>
</radialGradient>
<circle style="opacity:0.53;fill:url(#SVGID_00000036217030301284288960000014580373124646824098_);" cx="155.8" cy="53.5" r="8.4"/>
<radialGradient id="SVGID_00000147921288437785596540000004676864501864903568_" cx="147.3949" cy="71.0209" r="8.4097" fx="155.6955" fy="72.3712" gradientUnits="userSpaceOnUse">
	<stop  offset="0" style="stop-color:#2DAB66"/>
	<stop  offset="0.25" style="stop-color:#2EA867"/>
	<stop  offset="0.4383" style="stop-color:#2F9E6C"/>
	<stop  offset="0.6063" style="stop-color:#338E73"/>
	<stop  offset="0.7626" style="stop-color:#37777E"/>
	<stop  offset="0.9093" style="stop-color:#3D5A8B"/>
	<stop  offset="1" style="stop-color:#414495"/>
</radialGradient>
<circle style="opacity:0.53;fill:url(#SVGID_00000147921288437785596540000004676864501864903568_);" cx="147.4" cy="71" r="8.4"/>
<radialGradient id="SVGID_00000136410449811655349080000000076550831182153662_" cx="149.1715" cy="82.3146" r="8.4097" fx="157.4721" fy="83.6649" gradientUnits="userSpaceOnUse">
	<stop  offset="0" style="stop-color:#386FB4"/>
	<stop  offset="0.3523" style="stop-color:#396CB2"/>
	<stop  offset="0.6174" style="stop-color:#3B62AB"/>
	<stop  offset="0.8534" style="stop-color:#3E529F"/>
	<stop  offset="1" style="stop-color:#414495"/>
</radialGradient>
<circle style="opacity:0.53;fill:url(#SVGID_00000136410449811655349080000000076550831182153662_);" cx="149.2" cy="82.3" r="8.4"/>
<radialGradient id="SVGID_00000070831478590642005870000006811314144694774934_" cx="167.8663" cy="97.9551" r="9.3516" fx="177.0966" fy="99.4566" gradientUnits="userSpaceOnUse">
	<stop  offset="0" style="stop-color:#2DAB66"/>
	<stop  offset="0.25" style="stop-color:#2EA867"/>
	<stop  offset="0.4383" style="stop-color:#2F9E6C"/>
	<stop  offset="0.6063" style="stop-color:#338E73"/>
	<stop  offset="0.7626" style="stop-color:#37777E"/>
	<stop  offset="0.9093" style="stop-color:#3D5A8B"/>
	<stop  offset="1" style="stop-color:#414495"/>
</radialGradient>
<circle style="opacity:0.26;fill:url(#SVGID_00000070831478590642005870000006811314144694774934_);" cx="167.9" cy="98" r="9.4"/>
</svg>
